<svg xmlns="http://www.w3.org/2000/svg" viewBox="0 0 512 512">
  <defs>
    <linearGradient id="flame" x1="0" y1="1" x2="0.5" y2="0">
      <stop offset="0%" stop-color="#059669"/>
      <stop offset="50%" stop-color="#10b981"/>
      <stop offset="100%" stop-color="#06b6d4"/>
    </linearGradient>
    <linearGradient id="inner" x1="0" y1="1" x2="1" y2="0">
      <stop offset="0%" stop-color="#0d9488"/>
      <stop offset="100%" stop-color="#22d3ee"/>
    </linearGradient>
  </defs>
  <rect width="512" height="512" rx="108" fill="#060a0c"/>
  <!-- Outer flame shape -->
  <path d="M256 60 C256 60, 340 140, 360 220 C380 300, 360 360, 340 390 C320 420, 290 450, 256 452 C222 450, 192 420, 172 390 C152 360, 132 300, 152 220 C172 140, 256 60, 256 60Z" fill="url(#flame)" opacity="0.2"/>
  <!-- Inner flame -->
  <path d="M256 120 C256 120, 320 180, 335 240 C350 300, 330 345, 315 370 C300 395, 278 415, 256 416 C234 415, 212 395, 197 370 C182 345, 162 300, 177 240 C192 180, 256 120, 256 120Z" fill="url(#flame)" opacity="0.35"/>
  <!-- Core glow -->
  <ellipse cx="256" cy="300" rx="65" ry="85" fill="url(#inner)" opacity="0.15"/>
  <!-- Letter I -->
  <text x="256" y="330" text-anchor="middle" font-family="system-ui,-apple-system,sans-serif" font-weight="900" font-size="200" fill="url(#flame)">I</text>
</svg>
